<svg xmlns="http://www.w3.org/2000/svg" viewBox="0 0 84.14 96.32"><defs><style>.cls-1{fill:#61dafb;}.cls-2{fill:#fff;}</style></defs><title>React-icon</title><g id="Layer_2" data-name="Layer 2"><g id="Layer_1-2" data-name="Layer 1"><path class="cls-1" d="M42.07,0A48.16,48.16,0,0,0,17.78,14.5l5.23,3A41.83,41.83,0,0,1,42.07,6.35a41.83,41.83,0,0,1,19.06,11.15l5.23-3A48.16,48.16,0,0,0,42.07,0Z"/><path class="cls-1" d="M42.07,96.32A48.16,48.16,0,0,0,66.36,81.82l-5.23-3A41.83,41.83,0,0,1,42.07,89.94a41.83,41.83,0,0,1-19.06-11.15l-5.23,3A48.16,48.16,0,0,0,42.07,96.32Z"/><path class="cls-1" d="M91.65,54.2H88.53A41.82,41.82,0,0,1,77.38,42.07l3-5.23A48.15,48.15,0,0,0,84.14,42.07,48.16,48.16,0,0,0,91.65,54.2Z"/><path class="cls-1" d="M0,42.07A48.16,48.16,0,0,0,7.51,30l3,5.23A41.82,41.82,0,0,1,6.76,42.07,41.82,41.82,0,0,1,16.91,54.2H3.12A48.15,48.15,0,0,0,0,42.07Z"/><path class="cls-2" d="M42.07,24.41a17.66,17.66,0,1,0,17.66,17.66A17.66,17.66,0,0,0,42.07,24.41Zm0,30.33a12.67,12.67,0,1,1,12.67-12.67A12.67,12.67,0,0,1,42.07,54.74Z"/><path class="cls-2" d="M60.18,68.51l-4.38-2.53a29.16,29.16,0,0,0-29.38,0l-4.38,2.53a34.12,34.12,0,0,1,38.14,0Z"/><path class="cls-2" d="M79.94,42.07a37.87,37.87,0,0,0-5.22-14.93l-2.72,4.71A32.87,32.87,0,0,1,74.35,42.07a32.86,32.86,0,0,1-2.35,10.21l2.72,4.71A37.87,37.87,0,0,0,79.94,42.07Z"/><path class="cls-2" d="M4.21,42.07a37.87,37.87,0,0,0,5.22,14.93l2.72-4.71A32.86,32.86,0,0,1,9.8,42.07a32.87,32.87,0,0,1,2.35-10.21l-2.72-4.71A37.87,37.87,0,0,0,4.21,42.07Z"/><path class="cls-2" d="M55.81,27.76l2.53,4.38a29.16,29.16,0,0,0,0,29.38l-2.53,4.38a34.12,34.12,0,0,1,0-38.14Z"/><path class="cls-2" d="M28.33,27.76l-2.53,4.38a29.16,29.16,0,0,0,0,29.38l2.53,4.38a34.12,34.12,0,0,1,0-38.14Z"/></g></g></svg>